<?xml version="1.0" encoding="utf-8"?>
<!-- Generator: Adobe Illustrator 16.2.0, SVG Export Plug-In . SVG Version: 6.00 Build 0)  -->
<!DOCTYPE svg PUBLIC "-//W3C//DTD SVG 1.1//EN" "http://www.w3.org/Graphics/SVG/1.1/DTD/svg11.dtd">
<svg version="1.1" id="Layer_1" xmlns:sketch="http://www.bohemiancoding.com/sketch/ns"
	 xmlns="http://www.w3.org/2000/svg" xmlns:xlink="http://www.w3.org/1999/xlink" x="0px" y="0px" width="84px" height="84px"
	 viewBox="0 0 84 84" enable-background="new 0 0 84 84" xml:space="preserve">
<g sketch:type="MSShapeGroup">
	<g id="path-1">
		<path fill="#EEEEEE" d="M41.007,81.75c-21.37,0-38.756-17.386-38.756-38.756v-1.988c0-21.37,17.386-38.756,38.756-38.756h1.988
			c21.37,0,38.756,17.386,38.756,38.756v1.988c0,21.37-17.386,38.756-38.756,38.756H41.007z"/>
		<path fill="#FFFFFF" d="M42.995,3.25c20.817,0,37.756,16.938,37.756,37.756v1.988c0,20.818-16.938,37.756-37.756,37.756h-1.988
			c-20.819,0-37.756-16.938-37.756-37.756v-1.988c0-20.819,16.938-37.756,37.756-37.756H42.995 M42.995,1.25h-1.988
			c-21.956,0-39.756,17.8-39.756,39.756v1.988c0,21.957,17.8,39.756,39.756,39.756h1.988c21.957,0,39.756-17.799,39.756-39.756
			v-1.988C82.751,19.05,64.952,1.25,42.995,1.25L42.995,1.25z"/>
	</g>
</g>
<g>
	<path id="path-1_1_" fill="none" stroke="#F2EDED" d="M41.007,1.25h1.988c21.957,0,39.756,17.8,39.756,39.756v1.988
		c0,21.957-17.799,39.756-39.756,39.756h-1.988c-21.956,0-39.756-17.799-39.756-39.756v-1.988C1.251,19.05,19.051,1.25,41.007,1.25z
		"/>
</g>
<g>
	<polygon fill="#005EB8" points="34.2,37.986 31.354,40.847 40.522,50.015 60.912,29.624 58.055,26.767 40.522,44.31 	"/>
	<path fill="#005EB8" d="M58.87,41.861c0,8.97-7.338,16.308-16.308,16.308c-8.972,0-16.307-7.338-16.307-16.308
		c0-8.974,7.335-16.309,16.307-16.309c0.672,0,1.302,0.043,1.918,0.111l-1.848,3.29l10.205-1.417l-4.098-9.454l-2.142,3.812
		c-1.327-0.265-2.682-0.424-4.036-0.424c-11.209,0-20.39,9.18-20.39,20.391c0,11.209,9.181,20.39,20.39,20.39
		c11.211,0,20.39-9.181,20.39-20.39H58.87z"/>
</g>
</svg>
